<svg xmlns="http://www.w3.org/2000/svg" viewBox="0 0 271.3 72.8"><style type="text/css">  
	.st0{fill:#EB5B18;}
	.st1{fill:#7FCCE5;}
	.st2{fill:#70C8E2;}
</style><title>  logo</title><path class="st0" d="M6.4 29.3H0.5c-0.2-0.8-0.3-1.6-0.4-2.4C0 26.1 0 25.3 0 24.5c0-1.6 0.2-3.1 0.5-4.6h18v45.2c-2 0.3-4.1 0.5-6.1 0.5 -2 0-4-0.2-6-0.5L6.4 29.3 6.4 29.3 6.4 29.3zM4.6 12.2C4.2 10.3 4 8.4 4 6.4c0-2 0.2-3.9 0.6-5.9 1-0.2 2-0.3 3.2-0.4S9.9 0 10.9 0c1 0 2.1 0 3.2 0.1s2.2 0.2 3.2 0.4c0.2 1 0.3 1.9 0.4 2.9 0.1 1 0.1 1.9 0.1 2.9s0 2-0.1 2.9c-0.1 1-0.2 2-0.4 3 -1.1 0.2-2.1 0.3-3.2 0.4 -1.1 0.1-2.2 0.1-3.2 0.1s-2 0-3.2-0.1C6.7 12.6 5.6 12.5 4.6 12.2L4.6 12.2 4.6 12.2z"/><path class="st0" d="M27.1 19.9c0.8-0.2 1.6-0.3 2.5-0.4 0.9-0.1 1.8-0.1 2.7-0.1 0.9 0 1.7 0 2.6 0.1 0.8 0.1 1.6 0.2 2.4 0.4 0.2 0.4 0.4 0.8 0.5 1.3 0.2 0.5 0.3 1.1 0.4 1.8s0.2 1.2 0.3 1.8 0.2 1.1 0.2 1.5c0.6-0.9 1.3-1.8 2.1-2.6 1.8-1.9 4-3.3 6.5-4.1 1.4-0.5 2.9-0.7 4.5-0.7 5.1 0 9 1.4 11.6 4.2 2.6 2.8 3.9 7.2 3.9 13.2v28.9c-4.1 0.7-8.3 0.7-12.4 0V39.5c0.1-2.5-0.4-5-1.5-7.3 -1-1.7-2.6-2.5-5-2.5 -1 0-2.1 0.2-3.1 0.4 -1.1 0.3-2.1 0.9-2.8 1.7 -0.9 1-1.6 2.2-2.1 3.5 -0.6 1.9-0.9 4-0.8 6v23.7c-4.1 0.7-8.3 0.7-12.4 0L27.1 19.9 27.1 19.9 27.1 19.9z"/><path class="st1" d="M140.8 20c1.3-0.3 2.6-0.5 3.9-0.5 1.2-0.1 2.2-0.1 3.1-0.1 1.2 0 2.3 0 3.5 0.1 1.1 0 2.2 0.2 3.2 0.4l9.9 33.7 9.7-33.7c1-0.2 2-0.3 3.1-0.4s2.2-0.1 3.3-0.1c0.9 0 1.9 0 3 0.1 1.3 0.1 2.6 0.3 3.9 0.5l-17.1 45.1c-1.2 0.2-2.3 0.3-3.5 0.3 -1.2 0.1-2.2 0.1-3.1 0.1s-1.9 0-3-0.1c-1.1-0.1-2.1-0.2-3.1-0.4L140.8 20 140.8 20z"/><path class="st1" d="M213.7 44.4c-0.7-0.1-1.5-0.2-2.3-0.3 -0.7-0.1-1.5-0.1-2.2-0.1 -2.4-0.1-4.7 0.4-6.8 1.5 -1.7 1.1-2.6 3-2.5 4.9 -0.1 1.2 0.3 2.5 1 3.5 0.6 0.8 1.4 1.4 2.3 1.8 0.9 0.4 1.9 0.6 2.9 0.7 1 0.1 1.9 0.1 2.7 0.1 0.9 0 1.8-0.1 2.6-0.2l2.3-0.4L213.7 44.4 213.7 44.4 213.7 44.4zM213.7 35.4c0-1.2-0.2-2.3-0.7-3.4 -0.4-0.9-1.1-1.6-1.9-2.1 -0.9-0.5-1.9-0.9-3-1 -1.3-0.2-2.7-0.3-4-0.3 -3.4 0-6.9 0.7-10.1 1.8 -0.8-1.4-1.4-2.8-1.8-4.3 -0.4-1.6-0.6-3.2-0.6-4.8 2.5-0.9 5.1-1.5 7.7-1.9 2.4-0.4 4.8-0.6 7.2-0.6 6.1 0 10.8 1.5 14.2 4.4 3.4 2.9 5.1 7.6 5.1 14v26.2c-2.4 0.7-4.9 1.4-7.4 1.8 -3.3 0.6-6.6 0.9-9.9 0.9 -2.7 0-5.5-0.2-8.2-0.8 -2.3-0.4-4.5-1.3-6.4-2.6 -1.7-1.2-3.1-2.8-4.1-4.7 -1-2.2-1.5-4.6-1.4-7.1 -0.1-2.5 0.5-4.9 1.8-7 1.2-1.9 2.8-3.4 4.6-4.5 2-1.2 4.1-2 6.3-2.5 2.3-0.5 4.6-0.7 7-0.7 1.7 0 3.6 0.1 5.6 0.3L213.7 35.4 213.7 35.4 213.7 35.4z"/><path class="st1" d="M241.8 46.3c0.2 3.5 1.5 6 3.7 7.6 2.6 1.7 5.7 2.5 8.8 2.4 2 0 4.1-0.2 6.1-0.6 2-0.4 4-0.9 5.9-1.6 0.7 1.3 1.3 2.7 1.7 4.2 0.5 1.7 0.7 3.5 0.8 5.2 -4.9 1.8-10.1 2.7-15.4 2.6 -3.7 0.1-7.3-0.5-10.8-1.8 -2.8-1-5.3-2.7-7.4-4.8 -1.9-2.1-3.4-4.6-4.2-7.4 -0.9-3-1.4-6.2-1.4-9.4 0-3.2 0.4-6.3 1.4-9.4 0.9-2.8 2.3-5.4 4.2-7.6 1.9-2.2 4.2-3.9 6.8-5.1 3-1.3 6.2-2 9.5-1.9 2.9-0.1 5.8 0.5 8.4 1.7 2.4 1.1 4.5 2.6 6.3 4.5 1.8 2 3.1 4.3 3.9 6.9 0.9 2.8 1.3 5.6 1.3 8.5 0 1.1 0 2.2-0.1 3.3 -0.1 1.1-0.2 1.9-0.3 2.6H241.8L241.8 46.3zM259.6 37.6c0-2.5-0.8-4.8-2.3-6.8 -1.5-1.7-3.7-2.7-6-2.6 -2.9 0-5.1 0.8-6.6 2.5 -1.6 1.9-2.6 4.4-2.7 6.9H259.6z"/><path class="st0" d="M105.9 0.3C97.2 0.2 88.8 3.7 82.8 10c-0.7 0.7-1.3 1.3-1.9 2 2.1 3.5 4.7 6.7 7.7 9.5 0.8-1.2 1.6-2.2 2.6-3.2 8-8.2 21.1-8.4 29.3-0.4 0.1 0.1 0.2 0.2 0.2 0.2 4 4.1 6 9.3 6 15.6 0 7-2.5 12.6-7.6 16.6 -5.6 4.6-13.2 6-20.2 3.7 -4.8 0.9-9.3 2.9-13.1 6l-0.2 0.1c5.7 4.5 12.7 6.9 19.9 6.7 9.5 0 17.4-3.3 23.7-9.9 6.2-6.2 9.6-14.7 9.5-23.4 0-5.9-1.5-11.6-4.4-16.7C128.7 6.6 117.8 0.3 105.9 0.3L105.9 0.3zM80 13.2c-0.8 1-1.5 2-2.2 3.1 1.4 4.5 3.7 8.6 6.8 12.2 0.3 0.3 0.6 0.7 0.9 1 0.4-2.4 1.3-4.6 2.5-6.7C84.9 20 82.2 16.7 80 13.2L80 13.2zM77 17.8c-2.6 4.9-3.9 10.4-3.9 16 -0.1 7.3 2.2 14.5 6.7 20.3 2.4-3.3 5.4-6 8.9-8.1 -2.4-3.6-3.6-7.9-3.5-12.2 0-0.9 0-1.7 0.1-2.6 -0.6-0.6-1.1-1.2-1.6-1.8C80.8 25.9 78.5 22 77 17.8L77 17.8zM80.7 55.1c0.6 0.7 1.3 1.5 2 2.2 0.7 0.7 1.4 1.4 2.2 2l0.4-0.3c3.5-2.7 7.5-4.7 11.8-5.7 -2.2-1.1-4.1-2.5-5.8-4.3 -0.6-0.6-1.2-1.3-1.7-2C86 49.1 83 51.8 80.7 55.1L80.7 55.1 80.7 55.1z"/><path class="st2" d="M75.3 72.8c0-0.2 0-0.5 0-0.8 0-16.1 13-29.2 29.1-29.2 5.5 0 10.9 1.6 15.6 4.5l-0.4 0.5c-1.2 1.2-2.6 2.3-4.1 3.1 -1.5 0.9-3 1.5-4.6 2 -2.1-0.4-4.2-0.7-6.4-0.7C91.4 52.3 79.7 60.5 75.3 72.8L75.3 72.8zM100.8 17.2c2.7-2.6 7-2.6 9.6 0s2.6 7 0 9.6 -7 2.6-9.6 0c-1.3-1.3-2-3-2-4.8C98.8 20.1 99.6 18.4 100.8 17.2L100.8 17.2zM76.3 6.2c0-0.4 0-0.7 0-1.1 3 9.4 9.8 17.4 18.2 22.7 9.1 5.8 20.1 8.4 30.3 6.2l0.3-0.1V34c0 0.6 0 1.2-0.1 1.7l0 0c0 0.5-0.1 0.9-0.2 1.4 -2.2 1-4.5 1.8-6.9 2.4 -2.5 0.6-5.1 0.9-7.6 0.9 -1.6 0-3.2-0.1-4.8-0.4l0 0c-8.1-1.2-15.6-5.3-20.9-11.5C79.3 22.3 76.3 14.4 76.3 6.2L76.3 6.2z"/></svg>