<svg id="Calque_1" data-name="Calque 1" xmlns="http://www.w3.org/2000/svg" viewBox="0 0 24.6 26.93"><defs><style>.cls-1{fill:#fff;fill-rule:evenodd;}</style></defs><title>inovae_avatar-fff</title><path class="cls-1" d="M12.41,0A11.75,11.75,0,0,0,3.73,3.53Q3.35,3.9,3,4.29a15.75,15.75,0,0,0,2.85,3.6,8.37,8.37,0,0,1,1-1.2A7.4,7.4,0,0,1,12.4,4.41a7.4,7.4,0,0,1,5.49,2.35,8,8,0,0,1,2.17,5.83,7.57,7.57,0,0,1-2.9,6.18,7.71,7.71,0,0,1-5,1.72,7.68,7.68,0,0,1-2.5-.43,11,11,0,0,0-4.91,2.14l-0.06.05a11.7,11.7,0,0,0,7.42,2.6A11.73,11.73,0,0,0,21,21.29a12.22,12.22,0,0,0,3.64-8.71A12.31,12.31,0,0,0,23,6.31a12.12,12.12,0,0,0-4.46-4.57A12.13,12.13,0,0,0,12.41,0h0ZM2.68,4.68a12.18,12.18,0,0,0-.83,1.15,12.92,12.92,0,0,0,2.48,4.58l0.33,0.37A7.69,7.69,0,0,1,5.59,8.3,16.33,16.33,0,0,1,2.68,4.68h0ZM1.52,6.4a12.35,12.35,0,0,0-1.52,6A12,12,0,0,0,2.41,20a11.49,11.49,0,0,1,3.36-3,8,8,0,0,1-1.27-4.58,9.21,9.21,0,0,1,.06-1Q4.25,11.08,4,10.73A13.44,13.44,0,0,1,1.52,6.4h0Zm1.21,14c0.23,0.28.47,0.55,0.73,0.82S4,21.7,4.27,21.94l0.15-.12a11.54,11.54,0,0,1,4.41-2.09,7.72,7.72,0,0,1-2.14-1.61,8.57,8.57,0,0,1-.64-0.76,10.91,10.91,0,0,0-3.33,3h0Z" transform="translate(0 0)"/><path class="cls-1" d="M0.63,26.93c0-.09,0-0.19,0-0.28a10.89,10.89,0,0,1,16.82-9l-0.17.17A7.58,7.58,0,0,1,14,19.71a11.55,11.55,0,0,0-1.15-.19,11.94,11.94,0,0,0-1.23-.08,11.58,11.58,0,0,0-11,7.5h0ZM10.43,6.27A2.53,2.53,0,1,1,9.67,8a2.53,2.53,0,0,1,.77-1.78h0ZM1.32,2.05c0-.14,0-0.27,0-0.41A16.12,16.12,0,0,0,8,10.19a15.46,15.46,0,0,0,11.3,2.45l0.13,0v0c0,0.22,0,.44,0,0.65h0c0,0.17,0,.35-0.07.52a12.7,12.7,0,0,1-2.59.86,12.81,12.81,0,0,1-2.85.28,12.66,12.66,0,0,1-1.78-.15h0a12.67,12.67,0,0,1-7.77-4.4,12.78,12.78,0,0,1-3-8.37h0Z" transform="translate(0 0)"/></svg>